<svg width="20" height="20" xmlns="http://www.w3.org/2000/svg" version="1.1" viewBox="0 0 20 20"><path stroke="null" id="svg_1" p-id="16709" d="m15.704423,1.965111a1.145835,1.145835 0 0 1 0,1.620669l-1.047751,1.046835l1.072501,0a3.437504,3.437504 0 0 1 3.437504,3.438421l0,6.875009a3.437504,3.437504 0 0 1 -3.437504,3.437504l-11.458348,0a3.437504,3.437504 0 0 1 -3.437504,-3.437504l0,-6.875009a3.437504,3.437504 0 0 1 3.437504,-3.437504l1.068835,0l-1.045918,-1.046835a1.145835,1.145835 0 1 1 1.619752,-1.620669l2.431003,2.431003c0.072417,0.072417 0.132917,0.15125 0.1815,0.235584l2.945254,0c0.048583,-0.084333 0.11,-0.165 0.182417,-0.2365l2.430086,-2.431003a1.145835,1.145835 0 0 1 1.620669,0zm0.02475,4.96834l-11.458348,0a1.145835,1.145835 0 0 0 -1.143085,1.060585l-0.00275,0.086167l0,6.875009c0,0.604084 0.467501,1.099085 1.060585,1.142168l0.08525,0.003667l11.458348,0a1.145835,1.145835 0 0 0 1.143085,-1.060585l0.00275,-0.08525l0,-6.875009c0,-0.632501 -0.513334,-1.145835 -1.145835,-1.145835l0,-0.000917zm-9.166678,2.29167c0.632501,0 1.145835,0.513334 1.145835,1.145835l0,1.145835a1.145835,1.145835 0 1 1 -2.29167,0l0,-1.145835c0,-0.632501 0.513334,-1.145835 1.145835,-1.145835zm6.875009,0c0.632501,0 1.145835,0.513334 1.145835,1.145835l0,1.145835a1.145835,1.145835 0 1 1 -2.29167,0l0,-1.145835c0,-0.632501 0.513334,-1.145835 1.145835,-1.145835z"/></svg>