<svg width="20" height="20" xmlns="http://www.w3.org/2000/svg" version="1.1" viewBox="0 0 20 20"><path d="M16.94289,8.562302c-1.370791,0 -2.704047,-0.445507 -3.80068,-1.269613l0,5.749161c0,2.935776 -2.261804,5.313445 -5.052342,5.313445s-5.052342,-2.377669 -5.052342,-5.313445c0,-2.935776 2.261804,-5.313445 5.052342,-5.313445c0.279054,0 0.549948,0.024478 0.814315,0.070171l0,3.045113c-0.252943,-0.099546 -0.522206,-0.150134 -0.7931,-0.150134c-1.245135,0 -2.255277,1.060731 -2.255277,2.371141c0,1.308779 1.010142,2.371141 2.255277,2.371141c1.243503,0 2.253645,-1.062363 2.253645,-2.371141l0,-11.41999l2.81828,0c0,2.194897 1.692274,3.973661 3.779465,3.973661l0,2.942304l-0.019583,0.001632"/></svg>