<svg width="20" height="20" xmlns="http://www.w3.org/2000/svg" p-id="18237" version="1.1" class="icon" t="1651821462393">

 <g>
  <title>background</title>
  <rect fill="none" id="canvas_background" height="22" width="22" y="-1" x="-1"/>
 </g>
 <g>
  <title>Layer 1</title>
  <path stroke="null" id="svg_1" class="selected" data-spm-anchor-id="a313x.7781069.0.i30" p-id="18238" d="m10.001014,1.159923c-5.01756,-0.002029 -9.08152,4.059902 -9.08152,9.073405c0,3.964542 2.542258,7.334606 6.082752,8.572257c0.4768,0.119707 0.403758,-0.219125 0.403758,-0.450424l0,-1.572426c-2.753267,0.322601 -2.864859,-1.499384 -3.049492,-1.803725c-0.373324,-0.637086 -1.255912,-0.799401 -0.99215,-1.103742c0.626941,-0.322601 1.266056,0.081157 2.006618,1.174754c0.535639,0.793314 1.580542,0.659404 2.110094,0.527524c0.115649,-0.4768 0.36318,-0.902877 0.704041,-1.233593c-2.852685,-0.511292 -4.041642,-2.25212 -4.041642,-4.321635c0,-1.004324 0.330717,-1.92749 0.979976,-2.67211c-0.413903,-1.227507 0.03855,-2.278496 0.099418,-2.434724c1.178812,-0.105505 2.40429,0.844038 2.49965,0.919108c0.669549,-0.180575 1.434458,-0.275935 2.290669,-0.275935c0.860269,0 1.627207,0.099418 2.302843,0.282022c0.22927,-0.174489 1.365474,-0.990121 2.4611,-0.890703c0.058839,0.156228 0.501147,1.18287 0.111592,2.394145c0.657375,0.746649 0.99215,1.677931 0.99215,2.684283c0,2.073573 -1.197073,3.81643 -4.057873,4.319606a2.586894,2.586894 0 0 1 0.773025,1.846332l0,2.282554c0.016231,0.182604 0,0.36318 0.30434,0.36318c3.593247,-1.211275 6.180141,-4.605686 6.180141,-8.60472c0,-5.015531 -4.065989,-9.075434 -9.079491,-9.075434z"/>
 </g>
</svg>