<svg width="20" height="20" xmlns="http://www.w3.org/2000/svg" version="1.1" viewBox="0 0 20 20"><path d="M10.960507,9.615767c0,-0.288162 -0.096054,-0.480253 -0.288162,-0.576307c-0.192108,-0.192108 -0.384216,-0.288162 -0.672361,-0.288162s-0.480253,0.096054 -0.672361,0.288162c-0.192108,0.192108 -0.288162,0.384216 -0.288162,0.576307l0,4.130238c0,0.288162 0.096054,0.480253 0.288162,0.576307c0.192108,0.192108 0.384216,0.288162 0.672361,0.288162s0.480253,-0.096054 0.672361,-0.288162s0.288162,-0.384216 0.288162,-0.576307l0,-4.130238zm-0.960506,-4.226293c-0.288162,0 -0.576307,0.096054 -0.768415,0.288162c-0.288162,0.192108 -0.384216,0.480253 -0.384216,0.768415s0.096054,0.576307 0.288162,0.768415s0.480253,0.288162 0.768415,0.288162s0.576307,-0.096054 0.768415,-0.288162s0.288162,-0.480253 0.288162,-0.768415s-0.096054,-0.576307 -0.288162,-0.768415c-0.096054,-0.192108 -0.384216,-0.288162 -0.672361,-0.288162zm0,12.486786c-1.056577,0 -2.113155,-0.192108 -3.073661,-0.576307s-1.824993,-0.960523 -2.497354,-1.728939c-0.768415,-0.768415 -1.248685,-1.536831 -1.728939,-2.497354c-0.384216,-0.960523 -0.576307,-2.017101 -0.576307,-3.073661s0.192108,-2.113155 0.576307,-3.073661s0.960523,-1.824993 1.728939,-2.497354c0.768415,-0.768415 1.536831,-1.248685 2.497354,-1.728939c0.960523,-0.384216 2.017101,-0.576307 3.073661,-0.576307s2.113155,0.192108 3.073661,0.576307s1.824993,0.960523 2.497354,1.728939c0.768415,0.768415 1.248685,1.536831 1.728939,2.497354c0.384216,0.960523 0.576307,2.017101 0.576307,3.073661s-0.192108,2.113155 -0.576307,3.073661s-0.960523,1.824993 -1.728939,2.497354c-0.768415,0.768415 -1.536831,1.248685 -2.497354,1.728939c-0.960523,0.384216 -2.017101,0.576307 -3.073661,0.576307z"/></svg>