<svg width="20" height="20" xmlns="http://www.w3.org/2000/svg" p-id="12685" version="1.1" class="icon" t="1651819556791">

 <g>
  <title>background</title>
  <rect fill="none" id="canvas_background" height="22" width="22" y="-1" x="-1"/>
 </g>
 <g>
  <title>Layer 1</title>
  <path stroke="null" id="svg_1" p-id="12686" d="m1.85713,6.088594l0,9.791802c0,0.32006 0.32317,0.5389 0.620328,0.42015l3.903489,-1.776729l0,-10.857161l-3.954947,1.581922a0.904933,0.904933 0 0 0 -0.56887,0.840016zm5.42858,8.435222l5.42858,1.809527l0,-10.857161l-5.42858,-1.809527l0,10.857161zm10.236832,-10.824363l-3.903489,1.776729l0,10.857161l3.954947,-1.581922a0.90465,0.90465 0 0 0 0.56887,-0.840016l0,-9.791802c0,-0.32006 -0.32317,-0.5389 -0.620328,-0.42015z"/>
 </g>
</svg>