<svg width="20" height="20" xmlns="http://www.w3.org/2000/svg" p-id="2321" version="1.1" class="icon" t="1651812629897"><rect fill="none" id="canvas_background" height="20" width="20" y="-1" x="-1"/><path stroke="null" id="svg_1" p-id="2322" d="m7.06387,14.766655s-0.817539,0.389465 0.579785,0.519287c1.693432,0.157135 2.556853,0.136637 4.421322,-0.153736c0,0 0.492192,0.252793 1.176234,0.471441c-4.179397,1.465601 -9.45997,-0.085409 -6.177342,-0.837008m-0.508876,-1.916544s-0.913475,0.55345 0.48385,0.673023c1.806073,0.153736 3.236746,0.163985 5.706006,-0.22548c0,0 0.342032,0.283558 0.880106,0.437294c-5.059503,1.212773 -10.69045,0.099074 -7.069961,-0.884837m4.304531,-3.248907c1.030266,0.970229 -0.271123,1.8448 -0.271123,1.8448s2.61527,-1.106883 1.414009,-2.490492c-1.122031,-1.291367 -1.981281,-1.933625 2.673645,-4.143993c0.004171,0 -7.307694,1.496365 -3.816531,4.789685m5.53084,6.579806s0.604812,0.406547 -0.663208,0.724268c-2.415036,0.597863 -10.043906,0.77893 -12.162813,0.023915c-0.763315,-0.269892 0.667379,-0.649108 1.11786,-0.727685c0.467144,-0.081993 0.738267,-0.068327 0.738267,-0.068327c-0.846737,-0.488539 -5.476615,0.959997 -2.35249,1.373377c8.517318,1.134214 15.533034,-0.509038 13.322383,-1.325548m-8.934409,-5.31577s-3.883269,0.754998 -1.376469,1.028307c1.059464,0.116156 3.170008,0.088825 5.134584,-0.044413c1.60588,-0.109324 3.220061,-0.348469 3.220061,-0.348469s-0.567272,0.198149 -0.976041,0.427045c-3.941644,0.850674 -11.553829,0.454376 -9.364014,-0.413379c1.856106,-0.731101 3.361879,-0.649108 3.361879,-0.649108m6.965662,3.187429c4.008403,-1.704746 2.152276,-3.344565 0.85925,-3.122518c-0.317005,0.054662 -0.458823,0.102491 -0.458823,0.102491s0.116791,-0.15032 0.342032,-0.215231c2.556854,-0.737917 4.5256,2.172788 -0.825881,3.324084c0,-0.003416 0.062567,-0.047829 0.083422,-0.088825m-2.419206,-12.814594s2.218993,1.817486 -2.106394,4.612017c-3.466157,2.241115 -0.792512,3.522232 0,4.981001c-2.022971,-1.496366 -3.507868,-2.81163 -2.510971,-4.038086c1.464042,-1.793572 5.514134,-2.668142 4.617365,-5.554932m-4.150221,17.436877c3.845729,0.201565 9.751948,-0.11274 9.889595,-1.602273c0,0 -0.266952,0.563699 -3.17835,1.014659c-3.282628,0.505621 -7.332721,0.447543 -9.731093,0.122989c0,-0.003416 0.492192,0.331387 3.019848,0.464625"/></svg>