<svg width="20" height="20" xmlns="http://www.w3.org/2000/svg" version="1.1" viewBox="0 0 20 20"><path d="M3.264574,1.406082l13.470854,0a1.683857,1.683857 0 0 1 1.683857,1.683857l0,13.470854a1.683857,1.683857 0 0 1 -1.683857,1.683857l-13.470854,0a1.683857,1.683857 0 0 1 -1.683857,-1.683857l0,-13.470854a1.683857,1.683857 0 0 1 1.683857,-1.683857m1.683857,3.367713l0,3.367713l3.367713,0l0,1.683857l-1.683857,0l0,5.05157l1.683857,0l0,-1.683857l3.367713,0l0,1.683857l1.683857,0l0,-5.05157l-1.683857,0l0,-1.683857l3.367713,0l0,-3.367713l-3.367713,0l0,3.367713l-3.367713,0l0,-3.367713l-3.367713,0z"/></svg>