<svg width="20" height="20" xmlns="http://www.w3.org/2000/svg" viewBox="0 0 20 20"><path d="M13.304036,9.172441a2.479577,2.479577 0 1 0 -2.479577,-2.479577a2.479577,2.479577 0 0 0 2.479577,2.479577zm-6.614272,0a2.479577,2.479577 0 1 0 -2.479577,-2.479577a2.479577,2.479577 0 0 0 2.485776,2.479577l-0.006199,0zm0,1.655118c-1.927871,0 -5.783614,0.967035 -5.783614,2.894906l0,2.064248l11.573426,0l0,-2.070447c0,-1.927871 -3.861941,-2.894906 -5.783614,-2.894906l-0.006199,0.006199l0.000001,0zm6.614272,0c-0.241759,0 -0.514512,0 -0.799664,0.043393a3.490005,3.490005 0 0 1 1.630322,2.845315l0,2.064248l4.959154,0l0,-2.064248c0,-1.927871 -3.861941,-2.894906 -5.789813,-2.894906l0,0.006199l0.000001,-0.000001z"/></svg>